<mxfile host="app.diagrams.net" modified="2024-09-18T23:40:20.063Z" agent="Mozilla/5.0 (Windows NT 10.0; Win64; x64) AppleWebKit/537.36 (KHTML, like Gecko) Chrome/129.0.0.0 Safari/537.36" etag="ckEsYtj0KegdYhgxeUub" version="24.2.8" type="device">
  <diagram name="Page-1" id="5f0bae14-7c28-e335-631c-24af17079c00">
    <mxGraphModel dx="3044" dy="1418" grid="1" gridSize="10" guides="1" tooltips="1" connect="1" arrows="1" fold="1" page="1" pageScale="1" pageWidth="1100" pageHeight="850" background="none" math="0" shadow="0">
      <root>
        <mxCell id="0" />
        <mxCell id="1" parent="0" />
        <mxCell id="39150e848f15840c-1" value="Sistema de Gestão das Olimpíadas" style="verticalAlign=top;align=left;spacingTop=8;spacingLeft=2;spacingRight=12;shape=cube;size=10;direction=south;fontStyle=4;html=1;rounded=0;shadow=0;comic=0;labelBackgroundColor=none;strokeWidth=1;fontFamily=Verdana;fontSize=12" parent="1" vertex="1">
          <mxGeometry x="120" y="70" width="990" height="400" as="geometry" />
        </mxCell>
        <mxCell id="7raU8_8sNuid74axiar1-6" style="edgeStyle=orthogonalEdgeStyle;rounded=0;orthogonalLoop=1;jettySize=auto;html=1;" edge="1" parent="1" source="39150e848f15840c-5" target="7raU8_8sNuid74axiar1-1">
          <mxGeometry relative="1" as="geometry" />
        </mxCell>
        <mxCell id="7raU8_8sNuid74axiar1-7" style="edgeStyle=orthogonalEdgeStyle;rounded=0;orthogonalLoop=1;jettySize=auto;html=1;" edge="1" parent="1" source="39150e848f15840c-5" target="7raU8_8sNuid74axiar1-2">
          <mxGeometry relative="1" as="geometry" />
        </mxCell>
        <mxCell id="7raU8_8sNuid74axiar1-8" style="edgeStyle=orthogonalEdgeStyle;rounded=0;orthogonalLoop=1;jettySize=auto;html=1;" edge="1" parent="1" source="39150e848f15840c-5" target="7raU8_8sNuid74axiar1-3">
          <mxGeometry relative="1" as="geometry" />
        </mxCell>
        <mxCell id="7raU8_8sNuid74axiar1-9" style="edgeStyle=orthogonalEdgeStyle;rounded=0;orthogonalLoop=1;jettySize=auto;html=1;" edge="1" parent="1" source="39150e848f15840c-5" target="7raU8_8sNuid74axiar1-4">
          <mxGeometry relative="1" as="geometry" />
        </mxCell>
        <mxCell id="39150e848f15840c-5" value="Interface de Usuário" style="shape=component;align=left;spacingLeft=36;rounded=0;shadow=0;comic=0;labelBackgroundColor=none;strokeWidth=1;fontFamily=Verdana;fontSize=12;html=1;" parent="1" vertex="1">
          <mxGeometry x="490" y="110" width="190" height="60" as="geometry" />
        </mxCell>
        <mxCell id="7raU8_8sNuid74axiar1-10" style="edgeStyle=orthogonalEdgeStyle;rounded=0;orthogonalLoop=1;jettySize=auto;html=1;" edge="1" parent="1" source="7raU8_8sNuid74axiar1-1" target="7raU8_8sNuid74axiar1-5">
          <mxGeometry relative="1" as="geometry">
            <Array as="points">
              <mxPoint x="240" y="370" />
            </Array>
          </mxGeometry>
        </mxCell>
        <mxCell id="7raU8_8sNuid74axiar1-1" value="Módulo de Inscrições" style="shape=component;align=left;spacingLeft=36;rounded=0;shadow=0;comic=0;labelBackgroundColor=none;strokeWidth=1;fontFamily=Verdana;fontSize=12;html=1;" vertex="1" parent="1">
          <mxGeometry x="155" y="230" width="190" height="60" as="geometry" />
        </mxCell>
        <mxCell id="7raU8_8sNuid74axiar1-11" style="edgeStyle=orthogonalEdgeStyle;rounded=0;orthogonalLoop=1;jettySize=auto;html=1;" edge="1" parent="1" source="7raU8_8sNuid74axiar1-2" target="7raU8_8sNuid74axiar1-5">
          <mxGeometry relative="1" as="geometry" />
        </mxCell>
        <mxCell id="7raU8_8sNuid74axiar1-2" value="Módulo de Alocação" style="shape=component;align=left;spacingLeft=36;rounded=0;shadow=0;comic=0;labelBackgroundColor=none;strokeWidth=1;fontFamily=Verdana;fontSize=12;html=1;" vertex="1" parent="1">
          <mxGeometry x="385" y="230" width="175" height="60" as="geometry" />
        </mxCell>
        <mxCell id="7raU8_8sNuid74axiar1-12" style="edgeStyle=orthogonalEdgeStyle;rounded=0;orthogonalLoop=1;jettySize=auto;html=1;" edge="1" parent="1" source="7raU8_8sNuid74axiar1-3" target="7raU8_8sNuid74axiar1-5">
          <mxGeometry relative="1" as="geometry" />
        </mxCell>
        <mxCell id="7raU8_8sNuid74axiar1-3" value="Módulo de Resultados" style="shape=component;align=left;spacingLeft=36;rounded=0;shadow=0;comic=0;labelBackgroundColor=none;strokeWidth=1;fontFamily=Verdana;fontSize=12;html=1;" vertex="1" parent="1">
          <mxGeometry x="605" y="230" width="190" height="60" as="geometry" />
        </mxCell>
        <mxCell id="7raU8_8sNuid74axiar1-13" style="edgeStyle=orthogonalEdgeStyle;rounded=0;orthogonalLoop=1;jettySize=auto;html=1;" edge="1" parent="1" source="7raU8_8sNuid74axiar1-4" target="7raU8_8sNuid74axiar1-5">
          <mxGeometry relative="1" as="geometry">
            <Array as="points">
              <mxPoint x="930" y="370" />
            </Array>
          </mxGeometry>
        </mxCell>
        <mxCell id="7raU8_8sNuid74axiar1-4" value="Módulo de Relatórios" style="shape=component;align=left;spacingLeft=36;rounded=0;shadow=0;comic=0;labelBackgroundColor=none;strokeWidth=1;fontFamily=Verdana;fontSize=12;html=1;" vertex="1" parent="1">
          <mxGeometry x="835" y="230" width="180" height="60" as="geometry" />
        </mxCell>
        <mxCell id="7raU8_8sNuid74axiar1-5" value="Banco de Dados" style="shape=component;align=left;spacingLeft=36;rounded=0;shadow=0;comic=0;labelBackgroundColor=none;strokeWidth=1;fontFamily=Verdana;fontSize=12;html=1;" vertex="1" parent="1">
          <mxGeometry x="505" y="340" width="160" height="60" as="geometry" />
        </mxCell>
      </root>
    </mxGraphModel>
  </diagram>
</mxfile>
